<svg width="60" height="60" viewBox="0 0 60 60" fill="none" xmlns="http://www.w3.org/2000/svg">
<circle cx="30" cy="30" r="29.5" fill="white" stroke="#543EE0"/>
<path d="M23 39C22.45 39 21.979 38.804 21.587 38.412C21.195 38.02 20.9993 37.5493 21 37V23C21 22.45 21.196 21.979 21.588 21.587C21.98 21.195 22.4507 20.9993 23 21H37C37.55 21 38.021 21.196 38.413 21.588C38.805 21.98 39.0007 22.4507 39 23V37C39 37.55 38.804 38.021 38.412 38.413C38.02 38.805 37.5493 39.0007 37 39H23ZM23 37H37V23H23V37ZM24 35H36L32.25 30L29.25 34L27 31L24 35Z" fill="#543EE0"/>
</svg>
