<svg width="18" height="13" viewBox="0 0 18 13" fill="none" xmlns="http://www.w3.org/2000/svg">
<path d="M17.9998 1.5C18.0093 1.43032 18.0093 1.35968 17.9998 1.29C17.9911 1.23129 17.9743 1.17407 17.9498 1.12C17.9234 1.07113 17.8933 1.02433 17.8598 0.98C17.8218 0.916753 17.7746 0.859469 17.7198 0.81L17.5998 0.74C17.5421 0.696956 17.478 0.663215 17.4098 0.64H17.2098C17.1489 0.580995 17.0777 0.533558 16.9998 0.5H11.9998C11.7346 0.5 11.4802 0.605357 11.2927 0.792893C11.1052 0.98043 10.9998 1.23478 10.9998 1.5C10.9998 1.76522 11.1052 2.01957 11.2927 2.20711C11.4802 2.39464 11.7346 2.5 11.9998 2.5H14.8298L10.8298 7.21L6.50981 4.64C6.30519 4.5183 6.06387 4.47359 5.82923 4.51392C5.5946 4.55425 5.38205 4.67696 5.22981 4.86L0.229807 10.86C0.145605 10.961 0.0821652 11.0777 0.0431207 11.2033C0.00407625 11.3289 -0.00980554 11.461 0.00227033 11.592C0.0143462 11.7229 0.0521425 11.8503 0.113495 11.9666C0.174847 12.0829 0.258549 12.1861 0.359807 12.27C0.539719 12.4191 0.766155 12.5005 0.999807 12.5C1.14672 12.5002 1.29188 12.4681 1.42496 12.4059C1.55804 12.3437 1.67578 12.2529 1.76981 12.14L6.21981 6.8L10.4898 9.36C10.6923 9.48013 10.9308 9.52493 11.1631 9.48651C11.3954 9.4481 11.6067 9.32893 11.7598 9.15L15.9998 4.2V6.5C15.9998 6.76522 16.1052 7.01957 16.2927 7.20711C16.4802 7.39464 16.7346 7.5 16.9998 7.5C17.265 7.5 17.5194 7.39464 17.7069 7.20711C17.8945 7.01957 17.9998 6.76522 17.9998 6.5V1.5Z" fill="#626262"/>
</svg>
