<svg width="60" height="60" viewBox="0 0 60 60" fill="none" xmlns="http://www.w3.org/2000/svg">
<circle cx="30" cy="30" r="29.5" fill="white" stroke="#543EE0"/>
<path d="M33 26V34H23V26H33ZM34 24H22C21.7348 24 21.4804 24.1054 21.2929 24.2929C21.1054 24.4804 21 24.7348 21 25V35C21 35.2652 21.1054 35.5196 21.2929 35.7071C21.4804 35.8946 21.7348 36 22 36H34C34.2652 36 34.5196 35.8946 34.7071 35.7071C34.8946 35.5196 35 35.2652 35 35V31.5L39 35.5V24.5L35 28.5V25C35 24.7348 34.8946 24.4804 34.7071 24.2929C34.5196 24.1054 34.2652 24 34 24Z" fill="#543EE0"/>
</svg>
